<svg xmlns="http://www.w3.org/2000/svg" width="152" height="152" viewBox="0 0 152 152">
  <circle cx="76" cy="76" r="68.4" fill="#2563eb"/>
  <g transform="translate(33.440000000000005, 33.440000000000005) scale(0.8512)">
    <!-- Shopping Cart Icon -->
    <path d="M6 2 L3 6 L3 20 C3 21.1 3.9 22 5 22 L19 22 C20.1 22 21 21.1 21 20 L21 8 C21 6.9 20.1 6 19 6 L7.72 6 L6.53 2 Z" fill="none" stroke="white" stroke-width="1.5" stroke-linecap="round" stroke-linejoin="round"/>
    <path d="M16 10 C16 12.21 14.21 14 12 14 C9.79 14 8 12.21 8 10" fill="none" stroke="white" stroke-width="1.5" stroke-linecap="round" stroke-linejoin="round"/>
  </g>
  <!-- Simpler cart icon centered -->
  <g fill="none" stroke="white" stroke-width="6.08" stroke-linecap="round" stroke-linejoin="round">
    <path d="M33.44 48.64 L48.64 103.36 L118.56 103.36" />
    <path d="M48.64 103.36 L118.56 103.36 L124.64 68.4 L57.760000000000005 68.4" />
    <circle cx="63.84" cy="118.56" r="7.6000000000000005" fill="white" stroke="none"/>
    <circle cx="103.36" cy="118.56" r="7.6000000000000005" fill="white" stroke="none"/>
  </g>
</svg>