<svg xmlns="http://www.w3.org/2000/svg" width="192" height="192" viewBox="0 0 192 192">
  <rect width="192" height="192" fill="#2563eb"/>
  <g transform="translate(48.96, 48.96) scale(0.9408000000000001)">
    <!-- Shopping Cart Icon -->
    <path d="M6 2 L3 6 L3 20 C3 21.1 3.9 22 5 22 L19 22 C20.1 22 21 21.1 21 20 L21 8 C21 6.9 20.1 6 19 6 L7.72 6 L6.53 2 Z" fill="none" stroke="white" stroke-width="1.5" stroke-linecap="round" stroke-linejoin="round"/>
    <path d="M16 10 C16 12.21 14.21 14 12 14 C9.79 14 8 12.21 8 10" fill="none" stroke="white" stroke-width="1.5" stroke-linecap="round" stroke-linejoin="round"/>
  </g>
  <!-- Simpler cart icon centered -->
  <g fill="none" stroke="white" stroke-width="7.68" stroke-linecap="round" stroke-linejoin="round">
    <path d="M42.239999999999995 61.44 L61.44 130.56 L149.76 130.56" />
    <path d="M61.44 130.56 L149.76 130.56 L157.44 86.4 L72.96000000000001 86.4" />
    <circle cx="80.64" cy="149.76" r="9.600000000000001" fill="white" stroke="none"/>
    <circle cx="130.56" cy="149.76" r="9.600000000000001" fill="white" stroke="none"/>
  </g>
</svg>