<svg xmlns="http://www.w3.org/2000/svg" width="384" height="384" viewBox="0 0 384 384">
  <circle cx="192" cy="192" r="172.8" fill="#2563eb"/>
  <g transform="translate(84.48, 84.48) scale(2.1504)">
    <!-- Shopping Cart Icon -->
    <path d="M6 2 L3 6 L3 20 C3 21.1 3.9 22 5 22 L19 22 C20.1 22 21 21.1 21 20 L21 8 C21 6.9 20.1 6 19 6 L7.72 6 L6.53 2 Z" fill="none" stroke="white" stroke-width="1.5" stroke-linecap="round" stroke-linejoin="round"/>
    <path d="M16 10 C16 12.21 14.21 14 12 14 C9.79 14 8 12.21 8 10" fill="none" stroke="white" stroke-width="1.5" stroke-linecap="round" stroke-linejoin="round"/>
  </g>
  <!-- Simpler cart icon centered -->
  <g fill="none" stroke="white" stroke-width="15.36" stroke-linecap="round" stroke-linejoin="round">
    <path d="M84.47999999999999 122.88 L122.88 261.12 L299.52 261.12" />
    <path d="M122.88 261.12 L299.52 261.12 L314.88 172.8 L145.92000000000002 172.8" />
    <circle cx="161.28" cy="299.52" r="19.200000000000003" fill="white" stroke="none"/>
    <circle cx="261.12" cy="299.52" r="19.200000000000003" fill="white" stroke="none"/>
  </g>
</svg>