<svg xmlns="http://www.w3.org/2000/svg" width="128" height="128" viewBox="0 0 128 128">
  <circle cx="64" cy="64" r="57.6" fill="#2563eb"/>
  <g transform="translate(28.160000000000004, 28.160000000000004) scale(0.7168000000000001)">
    <!-- Shopping Cart Icon -->
    <path d="M6 2 L3 6 L3 20 C3 21.1 3.9 22 5 22 L19 22 C20.1 22 21 21.1 21 20 L21 8 C21 6.9 20.1 6 19 6 L7.72 6 L6.53 2 Z" fill="none" stroke="white" stroke-width="1.5" stroke-linecap="round" stroke-linejoin="round"/>
    <path d="M16 10 C16 12.21 14.21 14 12 14 C9.79 14 8 12.21 8 10" fill="none" stroke="white" stroke-width="1.5" stroke-linecap="round" stroke-linejoin="round"/>
  </g>
  <!-- Simpler cart icon centered -->
  <g fill="none" stroke="white" stroke-width="5.12" stroke-linecap="round" stroke-linejoin="round">
    <path d="M28.159999999999997 40.96 L40.96 87.03999999999999 L99.84 87.03999999999999" />
    <path d="M40.96 87.03999999999999 L99.84 87.03999999999999 L104.96000000000001 57.6 L48.64 57.6" />
    <circle cx="53.76" cy="99.84" r="6.4" fill="white" stroke="none"/>
    <circle cx="87.03999999999999" cy="99.84" r="6.4" fill="white" stroke="none"/>
  </g>
</svg>