<svg xmlns="http://www.w3.org/2000/svg" width="72" height="72" viewBox="0 0 72 72">
  <circle cx="36" cy="36" r="32.4" fill="#2563eb"/>
  <g transform="translate(15.84, 15.84) scale(0.4032)">
    <!-- Shopping Cart Icon -->
    <path d="M6 2 L3 6 L3 20 C3 21.1 3.9 22 5 22 L19 22 C20.1 22 21 21.1 21 20 L21 8 C21 6.9 20.1 6 19 6 L7.72 6 L6.53 2 Z" fill="none" stroke="white" stroke-width="1.5" stroke-linecap="round" stroke-linejoin="round"/>
    <path d="M16 10 C16 12.21 14.21 14 12 14 C9.79 14 8 12.21 8 10" fill="none" stroke="white" stroke-width="1.5" stroke-linecap="round" stroke-linejoin="round"/>
  </g>
  <!-- Simpler cart icon centered -->
  <g fill="none" stroke="white" stroke-width="2.88" stroke-linecap="round" stroke-linejoin="round">
    <path d="M15.839999999999996 23.04 L23.04 48.96 L56.160000000000004 48.96" />
    <path d="M23.04 48.96 L56.160000000000004 48.96 L59.04 32.4 L27.36 32.4" />
    <circle cx="30.240000000000002" cy="56.160000000000004" r="3.6" fill="white" stroke="none"/>
    <circle cx="48.96" cy="56.160000000000004" r="3.6" fill="white" stroke="none"/>
  </g>
</svg>