<svg xmlns="http://www.w3.org/2000/svg" width="144" height="144" viewBox="0 0 144 144">
  <circle cx="72" cy="72" r="64.8" fill="#2563eb"/>
  <g transform="translate(31.68, 31.68) scale(0.8064)">
    <!-- Shopping Cart Icon -->
    <path d="M6 2 L3 6 L3 20 C3 21.1 3.9 22 5 22 L19 22 C20.1 22 21 21.1 21 20 L21 8 C21 6.9 20.1 6 19 6 L7.72 6 L6.53 2 Z" fill="none" stroke="white" stroke-width="1.5" stroke-linecap="round" stroke-linejoin="round"/>
    <path d="M16 10 C16 12.21 14.21 14 12 14 C9.79 14 8 12.21 8 10" fill="none" stroke="white" stroke-width="1.5" stroke-linecap="round" stroke-linejoin="round"/>
  </g>
  <!-- Simpler cart icon centered -->
  <g fill="none" stroke="white" stroke-width="5.76" stroke-linecap="round" stroke-linejoin="round">
    <path d="M31.679999999999993 46.08 L46.08 97.92 L112.32000000000001 97.92" />
    <path d="M46.08 97.92 L112.32000000000001 97.92 L118.08 64.8 L54.72 64.8" />
    <circle cx="60.480000000000004" cy="112.32000000000001" r="7.2" fill="white" stroke="none"/>
    <circle cx="97.92" cy="112.32000000000001" r="7.2" fill="white" stroke="none"/>
  </g>
</svg>