<svg xmlns="http://www.w3.org/2000/svg" width="96" height="96" viewBox="0 0 96 96">
  <circle cx="48" cy="48" r="43.2" fill="#2563eb"/>
  <g transform="translate(21.12, 21.12) scale(0.5376)">
    <!-- Shopping Cart Icon -->
    <path d="M6 2 L3 6 L3 20 C3 21.1 3.9 22 5 22 L19 22 C20.1 22 21 21.1 21 20 L21 8 C21 6.9 20.1 6 19 6 L7.72 6 L6.53 2 Z" fill="none" stroke="white" stroke-width="1.5" stroke-linecap="round" stroke-linejoin="round"/>
    <path d="M16 10 C16 12.21 14.21 14 12 14 C9.79 14 8 12.21 8 10" fill="none" stroke="white" stroke-width="1.5" stroke-linecap="round" stroke-linejoin="round"/>
  </g>
  <!-- Simpler cart icon centered -->
  <g fill="none" stroke="white" stroke-width="3.84" stroke-linecap="round" stroke-linejoin="round">
    <path d="M21.119999999999997 30.72 L30.72 65.28 L74.88 65.28" />
    <path d="M30.72 65.28 L74.88 65.28 L78.72 43.2 L36.480000000000004 43.2" />
    <circle cx="40.32" cy="74.88" r="4.800000000000001" fill="white" stroke="none"/>
    <circle cx="65.28" cy="74.88" r="4.800000000000001" fill="white" stroke="none"/>
  </g>
</svg>