<svg xmlns="http://www.w3.org/2000/svg" width="512" height="512" viewBox="0 0 512 512">
  <circle cx="256" cy="256" r="230.4" fill="#2563eb"/>
  <g transform="translate(112.64000000000001, 112.64000000000001) scale(2.8672000000000004)">
    <!-- Shopping Cart Icon -->
    <path d="M6 2 L3 6 L3 20 C3 21.1 3.9 22 5 22 L19 22 C20.1 22 21 21.1 21 20 L21 8 C21 6.9 20.1 6 19 6 L7.72 6 L6.53 2 Z" fill="none" stroke="white" stroke-width="1.5" stroke-linecap="round" stroke-linejoin="round"/>
    <path d="M16 10 C16 12.21 14.21 14 12 14 C9.79 14 8 12.21 8 10" fill="none" stroke="white" stroke-width="1.5" stroke-linecap="round" stroke-linejoin="round"/>
  </g>
  <!-- Simpler cart icon centered -->
  <g fill="none" stroke="white" stroke-width="20.48" stroke-linecap="round" stroke-linejoin="round">
    <path d="M112.63999999999999 163.84 L163.84 348.15999999999997 L399.36 348.15999999999997" />
    <path d="M163.84 348.15999999999997 L399.36 348.15999999999997 L419.84000000000003 230.4 L194.56 230.4" />
    <circle cx="215.04" cy="399.36" r="25.6" fill="white" stroke="none"/>
    <circle cx="348.15999999999997" cy="399.36" r="25.6" fill="white" stroke="none"/>
  </g>
</svg>